<svg width="7543" height="656" viewBox="0 0 7543 656" fill="none" xmlns="http://www.w3.org/2000/svg">
<path d="M6626.24 0.500332C6626.95 0.266373 6627.72 0.203541 6628.47 0.321621C6629.88 0.418134 6631.19 1.11594 6632.09 2.31186L6744.91 88.4671C6746.46 89.4371 6747.5 91.1607 6747.5 93.1273C6747.5 93.2292 6747.5 93.3304 6747.49 93.431C6747.49 93.4385 6747.49 93.446 6747.49 93.4535L6747.5 93.7367V111.199L6749.99 111.537C6837.9 123.455 6914.86 131.874 6987.23 136.831C7040.85 131.761 7097.79 124.997 7160.26 116.55L7160.55 116.519C7163.44 116.276 7166.06 118.347 7166.45 121.263C7166.84 124.179 7164.88 126.87 7162.02 127.406L7161.74 127.451C7125.07 132.408 7090.3 136.786 7056.98 140.585C7207.39 146.375 7346.18 136.251 7536.26 110.55L7536.55 110.519C7539.44 110.276 7542.06 112.347 7542.45 115.263C7542.84 118.179 7540.88 120.87 7538.02 121.406L7537.74 121.451C7318.32 151.117 7166.81 160.096 6987.36 147.865C6870.73 158.857 6769.6 161.858 6661.2 156.745L6744.9 220.67L6744.99 220.726L6744.99 220.727C6745.05 220.765 6745.11 220.805 6745.17 220.846C6745.19 220.86 6745.21 220.873 6745.23 220.887C6745.28 220.925 6745.33 220.964 6745.38 221.003C6745.4 221.015 6745.41 221.027 6745.43 221.039C6745.48 221.079 6745.52 221.119 6745.57 221.16C6745.59 221.177 6745.61 221.193 6745.63 221.209C6745.68 221.25 6745.72 221.291 6745.77 221.333C6745.78 221.352 6745.8 221.37 6745.82 221.389C6745.86 221.425 6745.9 221.462 6745.94 221.499C6745.96 221.525 6745.98 221.551 6746.01 221.577C6746.05 221.622 6746.09 221.668 6746.13 221.715C6746.14 221.725 6746.15 221.735 6746.16 221.745C6746.2 221.795 6746.24 221.844 6746.29 221.895C6746.31 221.921 6746.33 221.947 6746.35 221.973C6746.37 222.008 6746.4 222.044 6746.43 222.079C6746.45 222.109 6746.47 222.14 6746.49 222.17C6746.58 222.292 6746.66 222.418 6746.74 222.547C6746.75 222.565 6746.76 222.584 6746.77 222.602C6746.8 222.652 6746.83 222.702 6746.85 222.752C6746.87 222.788 6746.89 222.824 6746.91 222.861C6746.93 222.9 6746.95 222.939 6746.97 222.979C6746.99 223.022 6747.01 223.066 6747.03 223.11C6747.04 223.149 6747.06 223.187 6747.08 223.227C6747.1 223.273 6747.12 223.32 6747.13 223.367C6747.14 223.396 6747.16 223.426 6747.17 223.455C6747.19 223.509 6747.2 223.563 6747.22 223.617C6747.23 223.654 6747.25 223.691 6747.26 223.728C6747.27 223.771 6747.28 223.815 6747.3 223.859C6747.31 223.897 6747.32 223.935 6747.33 223.973C6747.34 224.028 6747.35 224.083 6747.37 224.139C6747.37 224.172 6747.38 224.206 6747.39 224.24C6747.4 224.294 6747.41 224.349 6747.42 224.404C6747.43 224.438 6747.43 224.472 6747.44 224.506C6747.46 224.687 6747.48 224.871 6747.49 225.058L6747.5 225.341V243.199L6749.99 243.537C6837.9 255.455 6914.86 263.874 6987.23 268.831C7040.85 263.761 7097.79 256.997 7160.26 248.55L7160.55 248.519C7163.44 248.276 7166.06 250.347 7166.45 253.263C7166.84 256.179 7164.88 258.87 7162.02 259.406L7161.74 259.451C7125.07 264.408 7090.3 268.786 7056.98 272.585C7207.39 278.375 7346.18 268.251 7536.26 242.55L7536.55 242.519C7539.44 242.276 7542.06 244.347 7542.45 247.263C7542.84 250.179 7540.88 252.87 7538.02 253.406L7537.74 253.451C7318.32 283.117 7166.81 292.096 6987.36 279.865C6870.33 290.895 6768.9 293.88 6660.07 288.693L6744.91 353.482L6744.91 353.483C6746.46 354.453 6747.5 356.175 6747.5 358.139C6747.5 358.241 6747.5 358.342 6747.49 358.443C6747.49 358.45 6747.49 358.458 6747.49 358.465L6747.5 358.748V376.199L6749.99 376.537C6837.9 388.455 6914.86 396.874 6987.23 401.831C7040.85 396.761 7097.79 389.997 7160.26 381.55L7160.55 381.519C7163.44 381.276 7166.06 383.347 7166.45 386.263C7166.84 389.179 7164.88 391.87 7162.02 392.406L7161.74 392.451C7125.07 397.408 7090.3 401.786 7056.98 405.585C7207.39 411.375 7346.18 401.251 7536.26 375.55L7536.55 375.519C7539.44 375.276 7542.06 377.347 7542.45 380.263C7542.84 383.179 7540.88 385.87 7538.02 386.406L7537.74 386.451C7318.32 416.117 7166.81 425.096 6987.36 412.865C6860.82 424.791 6752.52 427.311 6633.4 420.267V446.879L6746.52 645.86L6746.65 646.11C6747.14 647.092 6747.33 648.184 6747.25 649.253C6747.24 650.33 6746.95 651.406 6746.37 652.346C6745.31 654.035 6743.54 654.867 6741.77 654.719C6740.28 654.709 6738.85 654.021 6737.88 652.744L6554 511.819L6370.11 652.744C6369.15 654.021 6367.72 654.71 6366.23 654.719C6364.46 654.867 6362.69 654.035 6361.63 652.346C6361.05 651.406 6360.76 650.33 6360.75 649.253C6360.66 648.184 6360.86 647.092 6361.35 646.11L6361.48 645.86L6474.6 446.879V414.153C6378.56 419.891 6289.56 419.49 6192.36 412.865C6065.82 424.791 5957.52 427.311 5838.4 420.267V446.879L5951.52 645.86L5951.65 646.11C5952.14 647.092 5952.33 648.184 5952.25 649.253C5952.24 650.33 5951.95 651.406 5951.37 652.346C5950.31 654.035 5948.54 654.867 5946.77 654.719C5945.28 654.709 5943.85 654.021 5942.88 652.744L5759 511.819L5575.11 652.744C5574.15 654.021 5572.72 654.71 5571.23 654.719C5569.46 654.867 5567.69 654.035 5566.63 652.346C5566.05 651.406 5565.76 650.33 5565.75 649.253C5565.66 648.184 5565.86 647.092 5566.35 646.11L5566.48 645.86L5679.6 446.879V414.153C5583.56 419.891 5494.56 419.49 5397.36 412.865C5270.82 424.791 5162.52 427.311 5043.4 420.267V446.879L5156.52 645.86L5156.65 646.11C5157.14 647.092 5157.33 648.184 5157.25 649.253C5157.24 650.33 5156.95 651.406 5156.37 652.346C5155.31 654.035 5153.54 654.867 5151.77 654.719C5150.28 654.709 5148.85 654.021 5147.88 652.744L4964 511.819L4780.11 652.744C4779.15 654.021 4777.72 654.71 4776.23 654.719C4774.46 654.867 4772.69 654.035 4771.63 652.346C4771.05 651.406 4770.76 650.33 4770.75 649.253C4770.66 648.184 4770.86 647.092 4771.35 646.11L4771.48 645.86L4884.6 446.879V414.153C4788.56 419.891 4699.56 419.49 4602.36 412.865C4475.82 424.791 4367.52 427.311 4248.4 420.267V446.879L4361.52 645.86L4361.65 646.11C4362.14 647.092 4362.33 648.184 4362.25 649.253C4362.24 650.33 4361.95 651.406 4361.37 652.346C4360.31 654.035 4358.54 654.867 4356.77 654.719C4355.28 654.709 4353.85 654.021 4352.88 652.744L4169 511.819L3985.11 652.744C3984.15 654.021 3982.72 654.71 3981.23 654.719C3979.46 654.867 3977.69 654.035 3976.63 652.346C3976.05 651.406 3975.76 650.33 3975.75 649.253C3975.66 648.184 3975.86 647.092 3976.35 646.11L3976.48 645.86L4089.6 446.879V414.849C3991.65 420.903 3901.24 420.605 3802.36 413.865C3677.59 425.624 3570.56 428.238 3453.4 421.557V447.879L3566.52 646.86L3566.65 647.11C3567.14 648.092 3567.33 649.184 3567.25 650.253C3567.24 651.33 3566.95 652.406 3566.37 653.346C3565.31 655.035 3563.54 655.867 3561.77 655.719C3560.28 655.709 3558.85 655.021 3557.88 653.744L3374 512.819L3190.11 653.744C3189.15 655.021 3187.72 655.71 3186.23 655.719C3184.46 655.867 3182.69 655.035 3181.63 653.346C3181.05 652.406 3180.76 651.33 3180.75 650.253C3180.66 649.184 3180.86 648.092 3181.35 647.11L3181.48 646.86L3294.6 447.879V415.153C3198.56 420.891 3109.56 420.49 3012.36 413.865C2885.82 425.791 2777.52 428.311 2658.4 421.267V447.879L2771.52 646.86L2771.65 647.11C2772.14 648.092 2772.33 649.184 2772.25 650.253C2772.24 651.33 2771.95 652.406 2771.37 653.346C2770.31 655.035 2768.54 655.867 2766.77 655.719C2765.28 655.709 2763.85 655.021 2762.88 653.744L2579 512.819L2395.11 653.744C2394.15 655.021 2392.72 655.71 2391.23 655.719C2389.46 655.867 2387.69 655.035 2386.63 653.346C2386.05 652.406 2385.76 651.33 2385.75 650.253C2385.66 649.184 2385.86 648.092 2386.35 647.11L2386.48 646.86L2499.6 447.879V415.153C2403.56 420.891 2314.56 420.49 2217.36 413.865C2090.82 425.791 1982.52 428.311 1863.4 421.267V447.879L1976.52 646.86L1976.65 647.11C1977.14 648.092 1977.33 649.184 1977.25 650.253C1977.24 651.33 1976.95 652.406 1976.37 653.346C1975.31 655.035 1973.54 655.867 1971.77 655.719C1970.28 655.709 1968.85 655.021 1967.88 653.744L1784 512.819L1600.11 653.744C1599.15 655.021 1597.72 655.71 1596.23 655.719C1594.46 655.867 1592.69 655.035 1591.63 653.346C1591.05 652.406 1590.76 651.33 1590.75 650.253C1590.66 649.184 1590.86 648.092 1591.35 647.11L1591.48 646.86L1704.6 447.879V415.153C1608.56 420.891 1519.56 420.49 1422.36 413.865C1295.82 425.791 1187.52 428.311 1068.4 421.267V447.879L1181.52 646.86L1181.65 647.11C1182.14 648.092 1182.33 649.184 1182.25 650.253C1182.24 651.33 1181.95 652.406 1181.37 653.346C1180.31 655.035 1178.54 655.867 1176.77 655.719C1175.28 655.709 1173.85 655.021 1172.88 653.744L989 512.819L805.115 653.744C804.146 655.021 802.716 655.71 801.233 655.719C799.461 655.867 797.692 655.035 796.634 653.346C796.045 652.406 795.758 651.33 795.748 650.253C795.664 649.184 795.855 648.092 796.35 647.11L796.485 646.86L909.604 447.879V412.153C813.564 417.891 724.561 417.49 627.36 410.865C416.587 430.73 256.419 424.501 12.5181 391.439L5.25537 390.45L4.97607 390.404C2.11681 389.864 0.152764 387.171 0.55127 384.255C0.950088 381.34 3.56524 379.272 6.46436 379.52L6.74561 379.551L13.9858 380.537C230.808 409.929 381.028 418.048 559.959 405.411C506.731 400.468 450.312 393.815 388.518 385.439L381.255 384.45L380.976 384.404C378.117 383.864 376.153 381.171 376.551 378.255C376.95 375.34 379.565 373.272 382.464 373.52L382.746 373.551L389.986 374.537C477.898 386.455 554.861 394.874 627.228 399.831C679.489 394.891 734.89 388.339 795.5 380.191V359.748C795.5 359.74 795.5 359.731 795.5 359.723C795.497 357.67 796.62 355.877 798.287 354.93L896.539 279.899C805.449 284.842 720.139 284.188 627.36 277.865C416.587 297.73 256.419 291.501 12.5181 258.439L5.25537 257.45L4.97607 257.404C2.11681 256.864 0.152764 254.171 0.55127 251.255C0.950088 248.34 3.56524 246.272 6.46436 246.52L6.74561 246.551L13.9858 247.537C230.808 276.929 381.028 285.048 559.959 272.411C506.731 267.468 450.312 260.815 388.518 252.439L381.255 251.45L380.976 251.404C378.117 250.864 376.153 248.171 376.551 245.255C376.95 242.34 379.565 240.272 382.464 240.52L382.746 240.551L389.986 241.537C477.898 253.455 554.861 261.874 627.228 266.831C679.489 261.891 734.89 255.339 795.5 247.191V226.955C795.5 226.942 795.5 226.929 795.5 226.916C795.499 226.903 795.5 226.89 795.5 226.876V226.341L795.507 226.058C795.634 223.563 797.423 221.507 799.79 220.976L895.403 147.959C804.74 152.836 719.753 152.162 627.36 145.865C416.587 165.73 256.419 159.501 12.5181 126.439L5.25537 125.45L4.97607 125.404C2.11681 124.864 0.152764 122.171 0.55127 119.255C0.950088 116.34 3.56524 114.272 6.46436 114.52L6.74561 114.551L13.9858 115.537C230.808 144.929 381.028 153.048 559.959 140.411C506.731 135.468 450.312 128.815 388.518 120.439L381.255 119.45L380.976 119.404C378.117 118.864 376.153 116.171 376.551 113.255C376.95 110.34 379.565 108.272 382.464 108.52L382.746 108.551L389.986 109.537C477.898 121.455 554.861 129.874 627.228 134.831C679.489 129.891 734.89 123.339 795.5 115.191V94.7367C795.5 94.7279 795.5 94.7191 795.5 94.7103C795.497 92.658 796.62 90.867 798.285 89.9193L910.246 4.42025C910.288 4.3415 910.332 4.26425 910.377 4.18783C911.494 1.89271 913.928 0.851777 916.226 1.50033H1061.24C1061.95 1.26659 1062.72 1.20361 1063.47 1.32162C1064.88 1.41816 1066.2 2.11655 1067.09 3.31381L1179.91 89.4671C1181.46 90.4371 1182.5 92.1606 1182.5 94.1273C1182.5 94.2292 1182.5 94.3304 1182.49 94.431C1182.49 94.4385 1182.49 94.446 1182.49 94.4535L1182.5 94.7367V112.199L1184.99 112.537C1272.9 124.455 1349.86 132.874 1422.23 137.831C1474.53 132.887 1529.97 126.329 1590.63 118.172C1590.55 117.785 1590.5 117.384 1590.5 116.971V94.7367C1590.5 94.7279 1590.5 94.7191 1590.5 94.7103C1590.5 92.658 1591.62 90.867 1593.28 89.9193L1705.25 4.42025C1705.29 4.3415 1705.33 4.26425 1705.38 4.18783C1706.49 1.89271 1708.93 0.851777 1711.23 1.50033H1856.24C1856.95 1.26659 1857.72 1.20361 1858.47 1.32162C1859.88 1.41816 1861.2 2.11655 1862.09 3.31381L1974.91 89.4671C1976.46 90.4371 1977.5 92.1606 1977.5 94.1273C1977.5 94.2292 1977.5 94.3304 1977.49 94.431C1977.49 94.4385 1977.49 94.446 1977.49 94.4535L1977.5 94.7367V112.199L1979.99 112.537C2067.9 124.455 2144.86 132.874 2217.23 137.831C2269.53 132.887 2324.97 126.329 2385.63 118.172C2385.55 117.785 2385.5 117.384 2385.5 116.971V94.7103C2385.5 92.6574 2386.62 90.8658 2388.29 89.9183L2500.25 4.42025C2500.29 4.34229 2500.33 4.26546 2500.38 4.18979C2501.49 1.89332 2503.93 0.852023 2506.23 1.50033H2651.24C2651.95 1.26637 2652.72 1.20354 2653.47 1.32162C2654.88 1.41813 2656.19 2.11594 2657.09 3.31186L2769.91 89.4671C2771.46 90.4371 2772.5 92.1607 2772.5 94.1273C2772.5 94.2292 2772.5 94.3304 2772.49 94.431C2772.49 94.4385 2772.49 94.446 2772.49 94.4535L2772.5 94.7367V112.199L2774.99 112.537C2862.9 124.455 2939.86 132.874 3012.23 137.831C3063.7 132.965 3118.22 126.537 3177.75 118.56C3178.55 117.976 3179.51 117.608 3180.53 117.521C3180.51 117.34 3180.5 117.157 3180.5 116.971V94.7103C3180.5 92.6574 3181.62 90.8658 3183.29 89.9183L3295.25 4.42025C3295.29 4.34229 3295.33 4.26546 3295.38 4.18979C3296.49 1.89332 3298.93 0.852023 3301.23 1.50033H3446.24C3446.95 1.26637 3447.72 1.20354 3448.47 1.32162C3449.88 1.41813 3451.19 2.11594 3452.09 3.31186L3564.91 89.4671C3566.46 90.4371 3567.5 92.1607 3567.5 94.1273C3567.5 94.2292 3567.5 94.3304 3567.49 94.431C3567.49 94.4385 3567.49 94.446 3567.49 94.4535L3567.5 94.7367V112.876C3654.37 124.614 3730.55 132.921 3802.23 137.831C3855.85 132.761 3912.79 125.997 3975.26 117.55L3975.55 117.519C3975.6 117.514 3975.66 117.511 3975.72 117.508C3975.58 117.02 3975.5 116.505 3975.5 115.971V93.7103C3975.5 91.6574 3976.62 89.8658 3978.29 88.9183L4090.25 3.42025C4090.29 3.34229 4090.33 3.26546 4090.38 3.18979C4091.49 0.893324 4093.93 -0.147977 4096.23 0.500332H4241.24C4241.95 0.266374 4242.72 0.203541 4243.47 0.321621C4244.88 0.418134 4246.19 1.11594 4247.09 2.31186L4359.91 88.4671C4361.46 89.4371 4362.5 91.1607 4362.5 93.1273C4362.5 93.2292 4362.5 93.3304 4362.49 93.431C4362.49 93.4385 4362.49 93.446 4362.49 93.4535L4362.5 93.7367V111.199L4364.99 111.537C4452.9 123.455 4529.86 131.874 4602.23 136.831C4654.53 131.887 4709.97 125.329 4770.63 117.172C4770.55 116.785 4770.5 116.384 4770.5 115.971V93.7103C4770.5 91.6574 4771.62 89.8658 4773.29 88.9183L4885.25 3.42025C4885.29 3.34229 4885.33 3.26546 4885.38 3.18979C4886.49 0.893324 4888.93 -0.147977 4891.23 0.500332H5036.24C5036.95 0.266374 5037.72 0.203541 5038.47 0.321621C5039.88 0.418134 5041.19 1.11594 5042.09 2.31186L5154.91 88.4671C5156.46 89.4371 5157.5 91.1607 5157.5 93.1273C5157.5 93.2292 5157.5 93.3304 5157.49 93.431C5157.49 93.4385 5157.49 93.446 5157.49 93.4535L5157.5 93.7367V111.199L5159.99 111.537C5247.9 123.455 5324.86 131.874 5397.23 136.831C5449.53 131.887 5504.97 125.329 5565.63 117.172C5565.55 116.785 5565.5 116.384 5565.5 115.971V93.7103C5565.5 91.6574 5566.62 89.8658 5568.29 88.9183L5680.25 3.42025C5680.29 3.34229 5680.33 3.26546 5680.38 3.18979C5681.49 0.893324 5683.93 -0.147977 5686.23 0.500332H5831.24C5831.95 0.266373 5832.72 0.203541 5833.47 0.321621C5834.88 0.418134 5836.19 1.11594 5837.09 2.31186L5949.91 88.4671C5951.46 89.4371 5952.5 91.1607 5952.5 93.1273C5952.5 93.2292 5952.5 93.3304 5952.49 93.431C5952.49 93.4385 5952.49 93.446 5952.49 93.4535L5952.5 93.7367V111.199L5954.99 111.537C6042.9 123.455 6119.86 131.874 6192.23 136.831C6244.53 131.887 6299.97 125.329 6360.63 117.172C6360.55 116.785 6360.5 116.384 6360.5 115.971V93.7103C6360.5 91.6574 6361.62 89.8658 6363.29 88.9183L6475.25 3.42025C6475.29 3.34229 6475.33 3.26546 6475.38 3.18979C6476.49 0.893324 6478.93 -0.147977 6481.23 0.500332H6626.24ZM998.001 505.92L1158.89 629.218L1061.24 457.455L998.001 505.92ZM1793 505.92L1953.89 629.218L1856.24 457.455L1793 505.92ZM2409.11 629.218L2570 505.92L2506.76 457.455L2409.11 629.218ZM2588 505.92L2748.89 629.218L2651.24 457.455L2588 505.92ZM3204.11 629.218L3365 505.92L3301.76 457.455L3204.11 629.218ZM3383 505.92L3543.89 629.218L3446.24 457.455L3383 505.92ZM819.116 629.217L979.999 505.92L916.76 457.455L819.116 629.217ZM1614.12 629.217L1775 505.92L1711.76 457.455L1614.12 629.217ZM3999.11 628.218L4160 504.92L4096.76 456.455L3999.11 628.218ZM4178 504.92L4338.89 628.218L4241.24 456.455L4178 504.92ZM4794.11 628.218L4955 504.92L4891.76 456.455L4794.11 628.218ZM4973 504.92L5133.89 628.218L5036.24 456.455L4973 504.92ZM5589.11 628.218L5750 504.92L5686.76 456.455L5589.11 628.218ZM5768 504.92L5928.89 628.218L5831.24 456.455L5768 504.92ZM6384.11 628.218L6545 504.92L6481.76 456.455L6384.11 628.218ZM6563 504.92L6723.89 628.218L6626.24 456.455L6563 504.92ZM937.737 410.313C931.997 410.72 926.287 411.106 920.604 411.471V446.604L989 499.021L1057.4 446.604V420.592C1019.03 418.148 979.461 414.724 937.737 410.313ZM1749.64 412.057C1738.18 412.945 1726.84 413.749 1715.6 414.471V446.604L1784 499.021L1852.4 446.604V420.592C1819.25 418.481 1785.2 415.637 1749.64 412.057ZM2544.64 412.057C2533.18 412.945 2521.84 413.749 2510.6 414.471V446.604L2579 499.021L2647.4 446.604L2647.4 420.592C2614.25 418.481 2580.2 415.637 2544.64 412.057ZM3336.81 412.274C3326.31 413.076 3315.91 413.809 3305.6 414.471V446.604L3374 499.021L3442.4 446.604L3442.4 420.905C3408.34 418.806 3373.37 415.93 3336.81 412.274ZM4138.02 411.395C4125.4 412.411 4112.94 413.328 4100.6 414.145V445.604L4169 498.021L4237.4 445.604V419.592C4205.3 417.548 4172.36 414.816 4138.02 411.395ZM4929.64 411.057C4918.18 411.945 4906.84 412.749 4895.6 413.471V445.604L4964 498.021L5032.4 445.604V419.592C4999.25 417.481 4965.2 414.637 4929.64 411.057ZM5724.64 411.057C5713.18 411.945 5701.84 412.749 5690.6 413.471V445.604L5759 498.021L5827.4 445.604V419.592C5794.25 417.481 5760.2 414.637 5724.64 411.057ZM6519.64 411.057C6508.18 411.945 6496.84 412.749 6485.6 413.471V445.604L6554 498.021L6622.4 445.604V419.592C6589.25 417.481 6555.2 414.637 6519.64 411.057ZM1172.5 385.156C1136.08 390.049 1101.52 394.367 1068.4 398.107V410.248C1165.88 416.039 1256.03 415.398 1354.96 408.411C1301.73 403.468 1245.31 396.815 1183.52 388.439L1176.26 387.45L1175.98 387.404C1174.52 387.129 1173.29 386.294 1172.5 385.156ZM1972 387.55C1933.92 392.694 1897.89 397.214 1863.4 401.107V410.248C1960.88 416.039 2051.03 415.398 2149.96 408.411C2096.73 403.468 2040.31 396.815 1978.52 388.439L1972 387.55ZM2767 387.55C2728.92 392.694 2692.89 397.214 2658.4 401.107V410.248C2755.88 416.039 2846.03 415.398 2944.96 408.411C2891.73 403.468 2835.31 396.815 2773.52 388.439L2767 387.55ZM3559.48 387.888C3522.33 392.891 3487.13 397.299 3453.4 401.107V410.54C3548.97 416.015 3637.72 415.278 3734.96 408.411C3681.73 403.468 3625.31 396.815 3563.52 388.439L3559.48 387.888ZM4355.45 386.279C4354.77 386.835 4353.94 387.233 4353.02 387.406L4352.74 387.451C4316.22 392.387 4281.59 396.751 4248.4 400.539V409.248C4345.88 415.039 4436.03 414.398 4534.96 407.411C4481.73 402.468 4425.31 395.815 4363.52 387.439L4356.26 386.45L4355.98 386.404C4355.8 386.37 4355.62 386.328 4355.45 386.279ZM5152 386.55C5113.92 391.694 5077.89 396.214 5043.4 400.107V409.248C5140.88 415.039 5231.03 414.398 5329.96 407.411C5276.73 402.468 5220.31 395.815 5158.52 387.439L5152 386.55ZM5947 386.55C5908.92 391.694 5872.89 396.214 5838.4 400.107V409.248C5935.88 415.039 6026.03 414.398 6124.96 407.411C6071.73 402.468 6015.31 395.815 5953.52 387.439L5947 386.55ZM6742 386.55C6703.92 391.694 6667.89 396.214 6633.4 400.107V409.248C6730.88 415.039 6821.03 414.398 6919.96 407.411C6866.73 402.468 6810.31 395.815 6748.52 387.439L6742 386.55ZM3442.4 402.331C3427.71 403.947 3413.31 405.447 3399.14 406.83C3413.75 407.985 3428.15 409.004 3442.4 409.885V402.331ZM1057.4 399.331C1037.66 401.502 1018.43 403.465 999.596 405.217C1019.24 406.909 1038.46 408.36 1057.4 409.571V399.331ZM1852.4 402.331C1838.49 403.862 1824.83 405.289 1811.38 406.612C1825.23 407.72 1838.89 408.707 1852.4 409.571V402.331ZM2647.4 402.331C2633.49 403.862 2619.83 405.289 2606.38 406.612C2620.23 407.72 2633.89 408.707 2647.4 409.571V402.331ZM4237.4 401.779C4224.45 403.22 4211.72 404.572 4199.18 405.834C4212.08 406.853 4224.8 407.765 4237.4 408.571V401.779ZM5032.4 401.331C5018.49 402.862 5004.83 404.289 4991.38 405.612C5005.23 406.72 5018.89 407.707 5032.4 408.571V401.331ZM5827.4 401.331C5813.49 402.862 5799.83 404.289 5786.38 405.612C5800.23 406.72 5813.89 407.707 5827.4 408.571V401.331ZM6622.4 401.331C6608.49 402.862 6594.83 404.289 6581.38 405.612C6595.23 406.72 6608.89 407.707 6622.4 408.571V401.331ZM1596 393.55C1559.6 398.466 1525.08 402.811 1491.98 406.585C1557.34 409.101 1620.5 408.611 1686.63 405.145C1659.63 401.958 1631.67 398.391 1602.52 394.439L1596 393.55ZM2391 393.55C2354.6 398.466 2320.08 402.811 2286.98 406.585C2352.34 409.101 2415.5 408.611 2481.63 405.145C2454.63 401.958 2426.67 398.391 2397.52 394.439L2391 393.55ZM3183.48 393.888C3148.01 398.665 3114.32 402.898 3081.98 406.585C3146.19 409.057 3208.28 408.628 3273.15 405.325C3245.69 402.092 3217.22 398.466 3187.52 394.439L3183.48 393.888ZM3979.45 392.279C3978.77 392.835 3977.94 393.233 3977.02 393.406L3976.74 393.451C3940.07 398.408 3905.3 402.786 3871.98 406.585C3940.37 409.218 4006.36 408.56 4075.86 404.643C4047.56 401.331 4018.2 397.598 3987.52 393.439L3980.26 392.45L3979.98 392.404C3979.8 392.37 3979.62 392.328 3979.45 392.279ZM4776 392.55C4739.6 397.466 4705.08 401.811 4671.98 405.585C4737.34 408.101 4800.5 407.611 4866.63 404.145C4839.63 400.958 4811.67 397.391 4782.52 393.439L4776 392.55ZM5571 392.55C5534.6 397.466 5500.08 401.811 5466.98 405.585C5532.34 408.101 5595.5 407.611 5661.63 404.145C5634.63 400.958 5606.67 397.391 5577.52 393.439L5571 392.55ZM6366 392.55C6329.6 397.466 6295.08 401.811 6261.98 405.585C6327.34 408.101 6390.5 407.611 6456.63 404.145C6429.63 400.958 6401.67 397.391 6372.52 393.439L6366 392.55ZM796.497 391.156C761.755 395.824 728.713 399.967 696.985 403.585C756.46 405.875 814.119 405.675 873.852 403.008C852.4 400.385 830.325 397.53 807.518 394.439L800.255 393.45L799.976 393.404C798.519 393.129 797.295 392.294 796.497 391.156ZM1422.36 280.865C1305.33 291.895 1203.9 294.88 1095.07 289.693L1179.91 354.482L1179.91 354.483C1181.47 355.453 1182.5 357.175 1182.5 359.139C1182.5 359.241 1182.5 359.342 1182.49 359.443C1182.49 359.45 1182.49 359.458 1182.49 359.465L1182.5 359.748V377.199L1184.99 377.537C1272.9 389.455 1349.86 397.874 1422.23 402.831C1474.53 397.887 1529.97 391.33 1590.63 383.173C1590.55 382.79 1590.5 382.391 1590.5 381.983V359.748C1590.5 359.74 1590.5 359.731 1590.5 359.723C1590.5 357.67 1591.62 355.877 1593.29 354.93L1687.32 283.123C1597.81 287.82 1513.7 287.09 1422.36 280.865ZM2217.36 280.865C2100.33 291.895 1998.9 294.88 1890.07 289.693L1974.91 354.482L1974.91 354.483C1976.47 355.453 1977.5 357.175 1977.5 359.139C1977.5 359.241 1977.5 359.342 1977.49 359.443C1977.49 359.45 1977.49 359.458 1977.49 359.465L1977.5 359.748V377.199L1979.99 377.537C2067.9 389.455 2144.86 397.874 2217.23 402.831C2269.53 397.887 2324.97 391.33 2385.63 383.173C2385.55 382.79 2385.5 382.391 2385.5 381.983V359.723C2385.5 357.669 2386.62 355.877 2388.29 354.93L2482.32 283.123C2392.81 287.82 2308.7 287.09 2217.36 280.865ZM3012.36 280.865C2895.33 291.895 2793.9 294.88 2685.07 289.693L2769.91 354.482L2769.91 354.483C2771.46 355.453 2772.5 357.175 2772.5 359.139C2772.5 359.241 2772.5 359.342 2772.49 359.443C2772.49 359.45 2772.49 359.458 2772.49 359.465L2772.5 359.748V377.199L2774.99 377.537C2862.9 389.455 2939.86 397.874 3012.23 402.831C3063.7 397.965 3118.22 391.537 3177.75 383.56C3178.55 382.977 3179.51 382.608 3180.53 382.521C3180.51 382.344 3180.5 382.164 3180.5 381.983V359.723C3180.5 357.669 3181.62 355.877 3183.29 354.93L3277.32 283.122C3187.81 287.819 3103.7 287.091 3012.36 280.865ZM3802.36 280.865C3687.24 291.715 3587.21 294.781 3480.4 289.941L3564.91 354.482L3564.91 354.483C3566.46 355.453 3567.5 357.175 3567.5 359.139C3567.5 359.241 3567.5 359.342 3567.49 359.443C3567.49 359.45 3567.49 359.458 3567.49 359.465L3567.5 359.748V377.876C3654.37 389.614 3730.55 397.921 3802.23 402.831C3855.85 397.761 3912.79 390.997 3975.26 382.55L3975.55 382.519C3975.6 382.514 3975.66 382.511 3975.72 382.508C3975.58 382.024 3975.5 381.512 3975.5 380.983V358.723C3975.5 356.669 3976.62 354.877 3978.29 353.93L4071.28 282.912C3980.29 287.841 3895.05 287.182 3802.36 280.865ZM4602.36 279.865C4485.33 290.895 4383.9 293.88 4275.07 288.693L4359.91 353.482L4359.91 353.483C4361.46 354.453 4362.5 356.175 4362.5 358.139C4362.5 358.241 4362.5 358.342 4362.49 358.443C4362.49 358.45 4362.49 358.458 4362.49 358.465L4362.5 358.748V376.199L4364.99 376.537C4452.9 388.455 4529.86 396.874 4602.23 401.831C4654.53 396.887 4709.97 390.33 4770.63 382.173C4770.55 381.79 4770.5 381.391 4770.5 380.983V358.723C4770.5 356.669 4771.62 354.877 4773.29 353.93L4867.32 282.122C4777.81 286.819 4693.7 286.091 4602.36 279.865ZM5397.36 279.865C5280.33 290.895 5178.9 293.88 5070.07 288.693L5154.91 353.482L5154.91 353.483C5156.46 354.453 5157.5 356.175 5157.5 358.139C5157.5 358.241 5157.5 358.342 5157.49 358.443C5157.49 358.45 5157.49 358.458 5157.49 358.465L5157.5 358.748V376.199L5159.99 376.537C5247.9 388.455 5324.86 396.874 5397.23 401.831C5449.53 396.887 5504.97 390.33 5565.63 382.173C5565.55 381.79 5565.5 381.391 5565.5 380.983V358.723C5565.5 356.669 5566.62 354.877 5568.29 353.93L5662.32 282.123C5572.81 286.82 5488.7 286.091 5397.36 279.865ZM6192.36 279.865C6075.33 290.895 5973.9 293.88 5865.07 288.693L5949.91 353.482L5949.91 353.483C5951.46 354.453 5952.5 356.175 5952.5 358.139C5952.5 358.241 5952.5 358.342 5952.49 358.443C5952.49 358.45 5952.49 358.458 5952.49 358.465L5952.5 358.748V376.199L5954.99 376.537C6042.9 388.455 6119.86 396.874 6192.23 401.831C6244.53 396.887 6299.97 390.33 6360.63 382.173C6360.55 381.79 6360.5 381.391 6360.5 380.983V358.723C6360.5 356.669 6361.62 354.877 6363.29 353.93L6457.32 282.122C6367.81 286.819 6283.7 286.091 6192.36 279.865ZM3305.6 365.032V397.944C3316.19 399.103 3326.62 400.199 3336.94 401.234C3370.77 398.637 3405.72 395.313 3442.4 391.266V364.827L3305.6 365.032ZM1715.6 365.032V397.393C1727.16 398.674 1738.54 399.882 1749.77 401.016C1782.73 398.453 1816.74 395.2 1852.4 391.266V364.827L1715.6 365.032ZM2510.6 365.032V397.393C2522.16 398.674 2533.54 399.882 2544.77 401.016C2577.73 398.453 2611.74 395.2 2647.4 391.266V364.827L2510.6 365.032ZM4100.6 364.032V396.393C4113.31 397.802 4125.81 399.121 4138.12 400.352C4170.01 397.773 4202.94 394.559 4237.4 390.711V363.827L4100.6 364.032ZM4895.6 364.032V396.393C4907.16 397.674 4918.54 398.882 4929.77 400.016C4962.73 397.453 4996.74 394.2 5032.4 390.266L5032.4 363.827L4895.6 364.032ZM5690.6 364.032V396.393C5702.16 397.674 5713.54 398.882 5724.77 400.016C5757.73 397.453 5791.74 394.2 5827.4 390.266L5827.4 363.827L5690.6 364.032ZM6485.6 364.032V396.393C6497.16 397.674 6508.54 398.882 6519.77 400.016C6552.73 397.453 6586.74 394.2 6622.4 390.266L6622.4 363.827L6485.6 364.032ZM920.604 365.032V397.393C926.419 398.038 932.19 398.664 937.92 399.272C976.117 396.545 1015.63 392.875 1057.4 388.266V364.827L920.604 365.032ZM3191.5 365.204V381.983C3191.5 382.632 3191.39 383.254 3191.18 383.832C3227.36 388.723 3261.69 393.018 3294.6 396.722V365.048L3191.5 365.204ZM806.5 365.204V381.983C806.5 382.394 806.452 382.795 806.367 383.18L808.986 383.537C844.141 388.303 877.545 392.507 909.604 396.157V365.048L806.5 365.204ZM1601.5 365.204V381.983C1601.5 382.394 1601.45 382.795 1601.37 383.18L1603.99 383.537C1639.14 388.303 1672.54 392.507 1704.6 396.157V365.048L1601.5 365.204ZM2396.5 365.204V381.983C2396.5 382.394 2396.45 382.795 2396.37 383.18L2398.99 383.537C2434.14 388.303 2467.54 392.507 2499.6 396.157V365.048L2396.5 365.204ZM3986.5 364.204V380.983C3986.5 381.394 3986.45 381.795 3986.37 382.18L3988.99 382.537C4024.14 387.303 4057.54 391.507 4089.6 395.157V364.048L3986.5 364.204ZM4781.5 364.204V380.983C4781.5 381.394 4781.45 381.795 4781.37 382.18L4783.99 382.537C4819.14 387.303 4852.54 391.507 4884.6 395.157V364.048L4781.5 364.204ZM5576.5 364.204V380.983C5576.5 381.394 5576.45 381.795 5576.37 382.18L5578.99 382.537C5614.14 387.303 5647.54 391.507 5679.6 395.157V364.048L5576.5 364.204ZM6371.5 364.204V380.983C6371.5 381.394 6371.45 381.795 6371.37 382.18L6373.99 382.537C6409.14 387.303 6442.54 391.507 6474.6 395.157V364.048L6371.5 364.204ZM1863.4 364.81V390.036C1896.21 386.322 1930.43 382.04 1966.5 377.191V364.656L1863.4 364.81ZM2658.4 364.81V390.036C2691.21 386.322 2725.43 382.04 2761.5 377.191V364.656L2658.4 364.81ZM3453.4 364.81V390.036C3485.38 386.416 3518.69 382.257 3553.75 377.56C3554.55 376.982 3555.49 376.614 3556.5 376.523V364.656L3453.4 364.81ZM4248.4 363.81V389.468C4281.13 385.721 4315.28 381.416 4351.26 376.55L4351.5 376.524V363.656L4248.4 363.81ZM5043.4 363.81V389.036C5076.21 385.322 5110.43 381.04 5146.5 376.191V363.656L5043.4 363.81ZM5838.4 363.81V389.036C5871.21 385.322 5905.43 381.04 5941.5 376.191V363.656L5838.4 363.81ZM6633.4 363.81V389.036C6666.21 385.322 6700.43 381.04 6736.5 376.191V363.656L6633.4 363.81ZM1068.4 364.81V387.036C1101.21 383.322 1135.43 379.04 1171.5 374.191V364.656L1068.4 364.81ZM817.301 354.189L909.604 354.049V283.702L817.301 354.189ZM1612.3 354.189L1704.6 354.049V283.702L1612.3 354.189ZM2407.3 354.189L2499.6 354.049V283.702L2407.3 354.189ZM3202.3 354.189L3294.6 354.049V283.702L3202.3 354.189ZM934.491 354.012L1043.23 353.848L988.999 321.653L934.491 354.012ZM1729.49 354.012L1838.23 353.848L1784 321.653L1729.49 354.012ZM2524.49 354.012L2633.23 353.848L2579 321.653L2524.49 354.012ZM3319.49 354.012L3428.23 353.848L3374 321.653L3319.49 354.012ZM1068.4 353.81L1160.81 353.671L1075.72 288.69C1073.28 288.553 1070.84 288.411 1068.4 288.267V353.81ZM1863.4 353.81L1955.81 353.671L1870.72 288.69C1868.28 288.553 1865.84 288.411 1863.4 288.267V353.81ZM2658.4 353.81L2750.81 353.671L2665.72 288.69C2663.28 288.553 2660.84 288.411 2658.4 288.267V353.81ZM3453.4 353.81L3545.81 353.671L3461.1 288.985C3458.54 288.847 3455.97 288.704 3453.4 288.557V353.81ZM3997.3 353.189L4089.6 353.049V282.702L3997.3 353.189ZM4792.3 353.189L4884.6 353.049V282.702L4792.3 353.189ZM5587.3 353.189L5679.6 353.049V282.702L5587.3 353.189ZM6382.3 353.189L6474.6 353.049L6474.6 282.702L6382.3 353.189ZM4114.49 353.012L4223.23 352.848L4169 320.653L4114.49 353.012ZM4909.49 353.012L5018.23 352.848L4964 320.653L4909.49 353.012ZM5704.49 353.012L5813.23 352.848L5759 320.653L5704.49 353.012ZM6499.49 353.012L6608.23 352.848L6554 320.653L6499.49 353.012ZM4248.4 352.81L4340.81 352.671L4255.72 287.69C4253.28 287.553 4250.84 287.411 4248.4 287.267V352.81ZM5043.4 352.81L5135.81 352.671L5050.72 287.69C5048.28 287.553 5045.84 287.411 5043.4 287.267V352.81ZM5838.4 352.81L5930.81 352.671L5845.72 287.69C5843.28 287.553 5840.84 287.411 5838.4 287.267V352.81ZM6633.4 352.81L6725.81 352.671L6640.72 287.69C6638.28 287.553 6635.84 287.411 6633.4 287.267V352.81ZM920.604 349.508L978.263 315.279L920.604 281.05V349.508ZM999.736 315.279L1057.4 349.508V287.592C1054.1 287.382 1050.79 287.164 1047.47 286.94L999.736 315.279ZM1715.6 281.471V349.508L1773.26 315.279L1716.24 281.429C1716.03 281.443 1715.82 281.457 1715.6 281.471ZM1794.74 315.279L1852.4 349.508V287.592C1849.1 287.382 1845.79 287.164 1842.47 286.94L1794.74 315.279ZM2510.6 281.471V349.508L2568.26 315.279L2511.24 281.429C2511.03 281.443 2510.82 281.457 2510.6 281.471ZM2589.74 315.279L2647.4 349.508V287.592C2644.1 287.382 2640.79 287.164 2637.47 286.94L2589.74 315.279ZM3305.6 281.471V349.508L3363.26 315.279L3306.24 281.429C3306.03 281.443 3305.82 281.457 3305.6 281.471ZM3384.74 315.279L3442.4 349.508V287.905C3438.93 287.691 3435.45 287.469 3431.96 287.24L3384.74 315.279ZM4100.6 281.145V348.508L4158.26 314.279L4102.26 281.034C4101.71 281.071 4101.16 281.108 4100.6 281.145ZM4179.74 314.279L4237.4 348.508V286.592C4234.1 286.382 4230.79 286.164 4227.47 285.94L4179.74 314.279ZM4895.6 280.471V348.508L4953.26 314.279L4896.24 280.429C4896.03 280.443 4895.82 280.457 4895.6 280.471ZM4974.74 314.279L5032.4 348.508V286.592C5029.1 286.382 5025.79 286.164 5022.47 285.94L4974.74 314.279ZM5690.6 280.471V348.508L5748.26 314.279L5691.24 280.429C5691.03 280.443 5690.82 280.457 5690.6 280.471ZM5769.74 314.279L5827.4 348.508V286.592C5824.1 286.382 5820.79 286.164 5817.47 285.94L5769.74 314.279ZM6485.6 280.471V348.508L6543.26 314.279L6486.24 280.429C6486.03 280.443 6485.82 280.457 6485.6 280.471ZM6564.74 314.279L6622.4 348.508V286.592C6619.1 286.382 6615.79 286.164 6612.47 285.94L6564.74 314.279ZM989 308.906L1028.31 285.571C999.651 283.415 970.217 280.729 939.629 277.512H936.118L989 308.906ZM1749.64 279.057C1744.91 279.424 1740.19 279.775 1735.5 280.114L1784 308.906L1823.31 285.571C1799.37 283.77 1774.88 281.598 1749.64 279.057ZM2544.64 279.057C2539.91 279.424 2535.19 279.775 2530.5 280.114L2579 308.906L2618.31 285.571C2594.37 283.77 2569.88 281.598 2544.64 279.057ZM3336.81 279.274C3333.03 279.563 3329.26 279.843 3325.5 280.114L3374 308.906L3412.75 285.9C3388.08 284.086 3362.85 281.878 3336.81 279.274ZM4138.02 278.395C4132.47 278.842 4126.95 279.27 4121.45 279.678L4169 307.906L4208.31 284.571C4185.44 282.85 4162.07 280.791 4138.02 278.395ZM4929.64 278.057C4924.91 278.424 4920.19 278.775 4915.5 279.114L4964 307.906L5003.31 284.571C4979.37 282.77 4954.88 280.598 4929.64 278.057ZM5724.64 278.057C5719.91 278.424 5715.19 278.775 5710.5 279.114L5759 307.906L5798.31 284.571C5774.37 282.77 5749.88 280.598 5724.64 278.057ZM6519.64 278.057C6514.91 278.424 6510.19 278.775 6505.5 279.114L6554 307.906L6593.31 284.571C6569.37 282.77 6544.88 280.598 6519.64 278.057ZM1172.5 252.156C1136.08 257.049 1101.52 261.367 1068.4 265.107V269.323L1079.61 277.888C1172.83 282.98 1259.84 282.129 1354.96 275.411C1301.73 270.468 1245.31 263.815 1183.52 255.439L1176.26 254.45L1175.98 254.404C1174.52 254.129 1173.29 253.294 1172.5 252.156ZM1972 254.55C1933.92 259.694 1897.89 264.213 1863.4 268.107L1863.4 269.323L1874.61 277.888C1967.83 282.98 2054.84 282.129 2149.96 275.411C2096.73 270.468 2040.31 263.815 1978.52 255.439L1972 254.55ZM2767 254.55C2728.92 259.694 2692.89 264.214 2658.4 268.107V269.323L2669.61 277.888C2762.83 282.98 2849.84 282.129 2944.96 275.411C2891.73 270.468 2835.31 263.815 2773.52 255.439L2767 254.55ZM3559.48 254.888C3522.33 259.891 3487.13 264.299 3453.4 268.107V269.323L3464.99 278.175C3556.18 282.945 3641.67 282 3734.96 275.411C3681.73 270.468 3625.31 263.815 3563.52 255.439L3559.48 254.888ZM4355.45 253.279C4354.77 253.835 4353.94 254.233 4353.02 254.406L4352.74 254.451C4316.22 259.387 4281.59 263.751 4248.4 267.539V268.323L4259.61 276.888C4352.83 281.98 4439.84 281.129 4534.96 274.411C4481.73 269.468 4425.31 262.815 4363.52 254.439L4356.26 253.45L4355.98 253.404C4355.8 253.37 4355.62 253.328 4355.45 253.279ZM5152 253.55C5113.92 258.694 5077.89 263.214 5043.4 267.107V268.323L5054.61 276.888C5147.83 281.98 5234.84 281.129 5329.96 274.411C5276.73 269.468 5220.31 262.815 5158.52 254.439L5152 253.55ZM5947 253.55C5908.92 258.694 5872.89 263.214 5838.4 267.107V268.323L5849.61 276.888C5942.83 281.98 6029.84 281.129 6124.96 274.411C6071.73 269.468 6015.31 262.815 5953.52 254.439L5947 253.55ZM6742 253.55C6703.92 258.694 6667.89 263.214 6633.4 267.107V268.323L6644.61 276.888C6737.83 281.98 6824.84 281.129 6919.96 274.411C6866.73 269.468 6810.31 262.815 6748.52 254.439L6742 253.55ZM1596 260.55C1559.6 265.466 1525.08 269.811 1491.98 273.585C1557.34 276.101 1620.5 275.611 1686.63 272.145C1659.63 268.958 1631.67 265.391 1602.52 261.439L1596 260.55ZM2391 260.55C2354.6 265.466 2320.08 269.811 2286.98 273.585C2352.34 276.101 2415.5 275.611 2481.63 272.145C2454.63 268.958 2426.67 265.391 2397.52 261.439L2391 260.55ZM3183.48 260.888C3148.01 265.665 3114.32 269.898 3081.98 273.585C3146.19 276.057 3208.28 275.628 3273.15 272.325C3245.69 269.092 3217.22 265.466 3187.52 261.439L3183.48 260.888ZM3979.45 259.279C3978.77 259.835 3977.94 260.233 3977.02 260.406L3976.74 260.451C3940.07 265.408 3905.3 269.786 3871.98 273.585C3940.37 276.218 4006.36 275.56 4075.86 271.643C4047.56 268.331 4018.2 264.598 3987.52 260.439L3980.26 259.45L3979.98 259.404C3979.8 259.37 3979.62 259.328 3979.45 259.279ZM4776 259.55C4739.6 264.466 4705.08 268.811 4671.98 272.585C4737.34 275.101 4800.5 274.611 4866.63 271.145C4839.63 267.958 4811.67 264.391 4782.52 260.439L4776 259.55ZM5571 259.55C5534.6 264.466 5500.08 268.811 5466.98 272.585C5532.34 275.101 5595.5 274.611 5661.63 271.145C5634.63 267.958 5606.67 264.391 5577.52 260.439L5571 259.55ZM6366 259.55C6329.6 264.466 6295.08 268.811 6261.98 272.585C6327.34 275.101 6390.5 274.611 6456.63 271.145C6429.63 267.958 6401.67 264.391 6372.52 260.439L6366 259.55ZM796.497 258.156C761.755 262.824 728.713 266.967 696.985 270.585C756.46 272.875 814.119 272.675 873.852 270.008C852.4 267.385 830.325 264.53 807.518 261.439L800.255 260.45L799.976 260.404C798.519 260.129 797.295 259.294 796.497 258.156ZM3802.36 148.865C3687.64 159.677 3587.91 162.758 3481.52 157.991L3564.9 221.67L3564.99 221.726C3565 221.729 3565 221.732 3565.01 221.735C3565.06 221.768 3565.11 221.802 3565.15 221.836C3565.18 221.853 3565.2 221.87 3565.23 221.887C3565.28 221.925 3565.33 221.964 3565.38 222.003C3565.4 222.015 3565.41 222.027 3565.43 222.039C3565.48 222.079 3565.52 222.119 3565.57 222.16C3565.59 222.177 3565.61 222.193 3565.63 222.209C3565.68 222.25 3565.72 222.291 3565.77 222.333C3565.78 222.352 3565.8 222.37 3565.82 222.389C3565.86 222.425 3565.9 222.462 3565.94 222.499C3565.96 222.525 3565.98 222.551 3566.01 222.577C3566.05 222.621 3566.09 222.666 3566.13 222.712C3566.14 222.723 3566.15 222.734 3566.16 222.745C3566.2 222.795 3566.24 222.844 3566.29 222.895C3566.31 222.921 3566.33 222.947 3566.35 222.973C3566.37 223.008 3566.4 223.044 3566.43 223.079C3566.45 223.109 3566.47 223.14 3566.49 223.17C3566.58 223.292 3566.66 223.418 3566.74 223.547C3566.75 223.565 3566.76 223.584 3566.77 223.602C3566.8 223.65 3566.82 223.698 3566.85 223.746C3566.87 223.783 3566.89 223.821 3566.91 223.859C3566.93 223.897 3566.95 223.934 3566.97 223.973C3566.99 224.018 3567.01 224.064 3567.03 224.11C3567.04 224.148 3567.06 224.186 3567.08 224.225C3567.1 224.272 3567.12 224.319 3567.13 224.367C3567.14 224.396 3567.16 224.426 3567.17 224.455C3567.19 224.509 3567.2 224.563 3567.22 224.617C3567.23 224.654 3567.25 224.691 3567.26 224.728C3567.27 224.771 3567.28 224.815 3567.3 224.859C3567.31 224.897 3567.32 224.935 3567.33 224.973C3567.34 225.028 3567.35 225.083 3567.37 225.139C3567.37 225.172 3567.38 225.206 3567.39 225.24C3567.4 225.294 3567.41 225.349 3567.42 225.404C3567.43 225.438 3567.43 225.472 3567.44 225.506C3567.46 225.687 3567.48 225.871 3567.49 226.058L3567.5 226.341V244.876C3654.37 256.614 3730.55 264.921 3802.23 269.831C3855.85 264.761 3912.79 257.997 3975.26 249.55L3975.55 249.519C3975.65 249.51 3975.75 249.504 3975.85 249.501C3975.62 248.902 3975.5 248.253 3975.5 247.576V225.341L3975.51 225.058C3975.63 222.563 3977.42 220.507 3979.79 219.976L4070.15 150.973C3979.58 155.835 3894.66 155.156 3802.36 148.865ZM1422.36 148.865C1305.73 159.857 1204.6 162.858 1096.2 157.745L1179.9 221.67L1179.99 221.726C1180 221.729 1180 221.732 1180.01 221.735C1180.06 221.768 1180.11 221.802 1180.15 221.836C1180.18 221.853 1180.2 221.87 1180.23 221.887C1180.28 221.925 1180.33 221.964 1180.38 222.003C1180.4 222.015 1180.41 222.027 1180.43 222.039C1180.48 222.079 1180.52 222.119 1180.57 222.16C1180.59 222.177 1180.61 222.193 1180.63 222.209C1180.67 222.245 1180.71 222.281 1180.75 222.318C1180.78 222.347 1180.81 222.376 1180.84 222.406C1180.87 222.435 1180.9 222.464 1180.93 222.493C1180.96 222.521 1180.98 222.549 1181.01 222.577C1181.05 222.621 1181.09 222.666 1181.13 222.712C1181.14 222.723 1181.15 222.734 1181.16 222.745C1181.2 222.796 1181.25 222.848 1181.29 222.901C1181.3 222.917 1181.32 222.933 1181.33 222.95C1181.37 223.002 1181.41 223.056 1181.45 223.11C1181.46 223.127 1181.48 223.144 1181.49 223.161C1181.52 223.21 1181.56 223.259 1181.59 223.308C1181.6 223.327 1181.61 223.347 1181.63 223.367C1181.71 223.497 1181.79 223.632 1181.86 223.77C1181.88 223.794 1181.89 223.818 1181.9 223.842C1181.92 223.886 1181.94 223.929 1181.97 223.973C1181.99 224.018 1182.01 224.064 1182.03 224.11C1182.04 224.148 1182.06 224.186 1182.08 224.225C1182.1 224.272 1182.12 224.319 1182.13 224.367C1182.14 224.396 1182.16 224.426 1182.17 224.455C1182.19 224.509 1182.2 224.563 1182.22 224.617C1182.23 224.654 1182.25 224.69 1182.26 224.728C1182.26 224.734 1182.26 224.74 1182.27 224.746L1182.33 224.958C1182.35 225.051 1182.37 225.145 1182.39 225.24C1182.4 225.294 1182.41 225.349 1182.42 225.404C1182.43 225.438 1182.43 225.472 1182.44 225.506C1182.46 225.687 1182.48 225.871 1182.49 226.058L1182.5 226.341V244.199L1184.99 244.537C1272.9 256.455 1349.86 264.874 1422.23 269.831C1474.56 264.884 1530.03 258.322 1590.73 250.16C1590.58 249.658 1590.5 249.126 1590.5 248.576V226.955C1590.5 226.942 1590.5 226.929 1590.5 226.916C1590.5 226.903 1590.5 226.89 1590.5 226.876V226.341L1590.51 226.058C1590.63 223.563 1592.42 221.507 1594.79 220.976L1686.18 151.183C1597.1 155.814 1513.32 155.064 1422.36 148.865ZM2217.36 148.865C2100.73 159.857 1999.6 162.858 1891.2 157.745L1974.9 221.67L1974.99 221.726C1975 221.729 1975 221.732 1975.01 221.735C1975.06 221.768 1975.11 221.802 1975.15 221.836C1975.18 221.853 1975.2 221.87 1975.23 221.887C1975.28 221.925 1975.33 221.964 1975.38 222.003C1975.4 222.015 1975.41 222.027 1975.43 222.039C1975.48 222.079 1975.52 222.119 1975.57 222.16C1975.59 222.177 1975.61 222.193 1975.63 222.209C1975.67 222.245 1975.71 222.281 1975.75 222.318C1975.78 222.347 1975.81 222.376 1975.84 222.406C1975.87 222.435 1975.9 222.464 1975.93 222.493C1975.96 222.521 1975.98 222.549 1976.01 222.577C1976.05 222.621 1976.09 222.666 1976.13 222.712C1976.14 222.723 1976.15 222.734 1976.16 222.745C1976.2 222.796 1976.25 222.848 1976.29 222.901C1976.3 222.917 1976.32 222.933 1976.33 222.95C1976.37 223.002 1976.41 223.056 1976.45 223.11C1976.46 223.127 1976.48 223.144 1976.49 223.161C1976.52 223.21 1976.56 223.259 1976.59 223.308C1976.6 223.327 1976.61 223.347 1976.63 223.367C1976.71 223.497 1976.79 223.632 1976.86 223.77C1976.88 223.794 1976.89 223.818 1976.9 223.842C1976.92 223.886 1976.94 223.929 1976.97 223.973C1976.99 224.018 1977.01 224.064 1977.03 224.11C1977.04 224.148 1977.06 224.186 1977.08 224.225C1977.1 224.272 1977.12 224.319 1977.13 224.367C1977.14 224.396 1977.16 224.426 1977.17 224.455C1977.19 224.509 1977.2 224.563 1977.22 224.617C1977.23 224.654 1977.25 224.69 1977.26 224.728C1977.26 224.734 1977.26 224.74 1977.27 224.746L1977.33 224.958C1977.35 225.051 1977.37 225.145 1977.39 225.24C1977.4 225.294 1977.41 225.349 1977.42 225.404C1977.43 225.438 1977.43 225.472 1977.44 225.506C1977.46 225.687 1977.48 225.871 1977.49 226.058L1977.5 226.341V244.199L1979.99 244.537C2067.9 256.455 2144.86 264.874 2217.23 269.831C2269.56 264.884 2325.03 258.322 2385.73 250.16C2385.58 249.658 2385.5 249.126 2385.5 248.576V226.341L2385.51 226.058C2385.63 223.563 2387.42 221.507 2389.79 220.976L2481.18 151.183C2392.1 155.814 2308.32 155.064 2217.36 148.865ZM3012.36 148.865C2895.73 159.857 2794.6 162.858 2686.2 157.745L2769.9 221.67L2769.99 221.726C2770 221.729 2770 221.732 2770.01 221.735C2770.06 221.768 2770.11 221.802 2770.15 221.836C2770.18 221.853 2770.2 221.87 2770.23 221.887C2770.28 221.925 2770.33 221.964 2770.38 222.003C2770.4 222.015 2770.41 222.027 2770.43 222.039C2770.48 222.079 2770.52 222.119 2770.57 222.16C2770.59 222.177 2770.61 222.193 2770.63 222.209C2770.68 222.25 2770.72 222.291 2770.77 222.333C2770.78 222.352 2770.8 222.37 2770.82 222.389C2770.86 222.425 2770.9 222.462 2770.94 222.499C2770.96 222.525 2770.98 222.551 2771.01 222.577C2771.05 222.621 2771.09 222.666 2771.13 222.712C2771.14 222.723 2771.15 222.734 2771.16 222.745C2771.2 222.795 2771.24 222.844 2771.29 222.895C2771.31 222.921 2771.33 222.947 2771.35 222.973C2771.37 223.008 2771.4 223.044 2771.43 223.079C2771.45 223.109 2771.47 223.14 2771.49 223.17C2771.58 223.292 2771.66 223.418 2771.74 223.547C2771.75 223.565 2771.76 223.584 2771.77 223.602C2771.8 223.65 2771.82 223.698 2771.85 223.746C2771.87 223.783 2771.89 223.821 2771.91 223.859C2771.93 223.897 2771.95 223.934 2771.97 223.973C2771.99 224.018 2772.01 224.064 2772.03 224.11C2772.04 224.148 2772.06 224.186 2772.08 224.225C2772.1 224.272 2772.12 224.319 2772.13 224.367C2772.14 224.396 2772.16 224.426 2772.17 224.455C2772.19 224.509 2772.2 224.563 2772.22 224.617C2772.23 224.654 2772.25 224.691 2772.26 224.728C2772.27 224.771 2772.28 224.815 2772.3 224.859C2772.31 224.897 2772.32 224.935 2772.33 224.973C2772.34 225.028 2772.35 225.083 2772.37 225.139C2772.37 225.172 2772.38 225.206 2772.39 225.24C2772.4 225.294 2772.41 225.349 2772.42 225.404C2772.43 225.438 2772.43 225.472 2772.44 225.506C2772.46 225.687 2772.48 225.871 2772.49 226.058L2772.5 226.341V244.199L2774.99 244.537C2862.9 256.455 2939.86 264.874 3012.23 269.831C3063.7 264.965 3118.22 258.537 3177.75 250.56C3178.57 249.966 3179.54 249.594 3180.58 249.516C3180.53 249.21 3180.5 248.896 3180.5 248.576V226.341L3180.51 226.058C3180.63 223.563 3182.42 221.507 3184.79 220.976L3276.18 151.183C3187.1 155.814 3103.32 155.064 3012.36 148.865ZM4602.36 147.865C4485.73 158.857 4384.6 161.858 4276.2 156.745L4359.9 220.67L4359.99 220.726L4359.99 220.727C4360.05 220.765 4360.11 220.805 4360.17 220.846C4360.19 220.86 4360.21 220.873 4360.23 220.887C4360.28 220.925 4360.33 220.964 4360.38 221.003C4360.4 221.015 4360.41 221.027 4360.43 221.039C4360.48 221.079 4360.52 221.119 4360.57 221.16C4360.59 221.177 4360.61 221.193 4360.63 221.209C4360.68 221.25 4360.72 221.291 4360.77 221.333C4360.78 221.352 4360.8 221.37 4360.82 221.389C4360.86 221.425 4360.9 221.462 4360.94 221.499C4360.96 221.525 4360.98 221.551 4361.01 221.577C4361.05 221.622 4361.09 221.668 4361.13 221.715C4361.14 221.725 4361.15 221.735 4361.16 221.745C4361.2 221.795 4361.24 221.844 4361.29 221.895C4361.31 221.921 4361.33 221.947 4361.35 221.973C4361.37 222.008 4361.4 222.044 4361.43 222.079C4361.45 222.109 4361.47 222.14 4361.49 222.17C4361.58 222.292 4361.66 222.418 4361.74 222.547C4361.75 222.565 4361.76 222.584 4361.77 222.602C4361.8 222.652 4361.83 222.702 4361.85 222.752C4361.87 222.788 4361.89 222.824 4361.91 222.861C4361.93 222.9 4361.95 222.939 4361.97 222.979C4361.99 223.022 4362.01 223.066 4362.03 223.11C4362.04 223.149 4362.06 223.187 4362.08 223.227C4362.1 223.273 4362.12 223.32 4362.13 223.367C4362.14 223.396 4362.16 223.426 4362.17 223.455C4362.19 223.509 4362.2 223.563 4362.22 223.617C4362.23 223.654 4362.25 223.691 4362.26 223.728C4362.27 223.771 4362.28 223.815 4362.3 223.859C4362.31 223.897 4362.32 223.935 4362.33 223.973C4362.34 224.028 4362.35 224.083 4362.37 224.139C4362.37 224.172 4362.38 224.206 4362.39 224.24C4362.4 224.294 4362.41 224.349 4362.42 224.404C4362.43 224.438 4362.43 224.472 4362.44 224.506C4362.46 224.687 4362.48 224.871 4362.49 225.058L4362.5 225.341V243.199L4364.99 243.537C4452.9 255.455 4529.86 263.874 4602.23 268.831C4654.56 263.884 4710.03 257.322 4770.73 249.16C4770.58 248.658 4770.5 248.126 4770.5 247.576V225.341L4770.51 225.058C4770.63 222.563 4772.42 220.507 4774.79 219.976L4866.18 150.183C4777.1 154.814 4693.32 154.064 4602.36 147.865ZM5397.36 147.865C5280.73 158.857 5179.6 161.858 5071.2 156.745L5154.9 220.67L5154.99 220.726L5154.99 220.727C5155.05 220.765 5155.11 220.805 5155.17 220.846C5155.19 220.86 5155.21 220.873 5155.23 220.887C5155.28 220.925 5155.33 220.964 5155.38 221.003C5155.4 221.015 5155.41 221.027 5155.43 221.039C5155.48 221.079 5155.52 221.119 5155.57 221.16C5155.59 221.177 5155.61 221.193 5155.63 221.209C5155.68 221.25 5155.72 221.291 5155.77 221.333C5155.78 221.352 5155.8 221.37 5155.82 221.389C5155.86 221.425 5155.9 221.462 5155.94 221.499C5155.96 221.525 5155.98 221.551 5156.01 221.577C5156.05 221.622 5156.09 221.668 5156.13 221.715C5156.14 221.725 5156.15 221.735 5156.16 221.745C5156.2 221.795 5156.24 221.844 5156.29 221.895C5156.31 221.921 5156.33 221.947 5156.35 221.973C5156.37 222.008 5156.4 222.044 5156.43 222.079C5156.45 222.109 5156.47 222.14 5156.49 222.17C5156.58 222.292 5156.66 222.418 5156.74 222.547C5156.75 222.565 5156.76 222.584 5156.77 222.602C5156.8 222.652 5156.83 222.702 5156.85 222.752C5156.87 222.788 5156.89 222.824 5156.91 222.861C5156.93 222.9 5156.95 222.939 5156.97 222.979C5156.99 223.022 5157.01 223.066 5157.03 223.11C5157.04 223.149 5157.06 223.187 5157.08 223.227C5157.1 223.273 5157.12 223.32 5157.13 223.367C5157.14 223.396 5157.16 223.426 5157.17 223.455C5157.19 223.509 5157.2 223.563 5157.22 223.617C5157.23 223.654 5157.25 223.691 5157.26 223.728C5157.27 223.771 5157.28 223.815 5157.3 223.859C5157.31 223.897 5157.32 223.935 5157.33 223.973C5157.34 224.028 5157.35 224.083 5157.37 224.139C5157.37 224.172 5157.38 224.206 5157.39 224.24C5157.4 224.294 5157.41 224.349 5157.42 224.404C5157.43 224.438 5157.43 224.472 5157.44 224.506C5157.46 224.687 5157.48 224.871 5157.49 225.058L5157.5 225.341V243.199L5159.99 243.537C5247.9 255.455 5324.86 263.874 5397.23 268.831C5449.56 263.884 5505.03 257.322 5565.73 249.16C5565.58 248.658 5565.5 248.126 5565.5 247.576V225.341L5565.51 225.058C5565.63 222.563 5567.42 220.507 5569.79 219.976L5661.18 150.183C5572.1 154.814 5488.32 154.064 5397.36 147.865ZM6192.36 147.865C6075.73 158.857 5974.6 161.858 5866.2 156.745L5949.9 220.67L5949.99 220.726L5949.99 220.727C5950.05 220.765 5950.11 220.805 5950.17 220.846C5950.19 220.86 5950.21 220.873 5950.23 220.887C5950.28 220.925 5950.33 220.964 5950.38 221.003C5950.4 221.015 5950.41 221.027 5950.43 221.039C5950.48 221.079 5950.52 221.119 5950.57 221.16C5950.59 221.177 5950.61 221.193 5950.63 221.209C5950.68 221.25 5950.72 221.291 5950.77 221.333C5950.78 221.352 5950.8 221.37 5950.82 221.389C5950.86 221.425 5950.9 221.462 5950.94 221.499C5950.96 221.525 5950.98 221.551 5951.01 221.577C5951.05 221.622 5951.09 221.668 5951.13 221.715C5951.14 221.725 5951.15 221.735 5951.16 221.745C5951.2 221.795 5951.24 221.844 5951.29 221.895C5951.31 221.921 5951.33 221.947 5951.35 221.973C5951.37 222.008 5951.4 222.044 5951.43 222.079C5951.45 222.109 5951.47 222.14 5951.49 222.17C5951.58 222.292 5951.66 222.418 5951.74 222.547C5951.75 222.565 5951.76 222.584 5951.77 222.602C5951.8 222.652 5951.83 222.702 5951.85 222.752C5951.87 222.788 5951.89 222.824 5951.91 222.861C5951.93 222.9 5951.95 222.939 5951.97 222.979C5951.99 223.022 5952.01 223.066 5952.03 223.11C5952.04 223.149 5952.06 223.187 5952.08 223.227C5952.1 223.273 5952.12 223.32 5952.13 223.367C5952.14 223.396 5952.16 223.426 5952.17 223.455C5952.19 223.509 5952.2 223.563 5952.22 223.617C5952.23 223.654 5952.25 223.691 5952.26 223.728C5952.27 223.771 5952.28 223.815 5952.3 223.859C5952.31 223.897 5952.32 223.935 5952.33 223.973C5952.34 224.028 5952.35 224.083 5952.37 224.139C5952.37 224.172 5952.38 224.206 5952.39 224.24C5952.4 224.294 5952.41 224.349 5952.42 224.404C5952.43 224.438 5952.43 224.472 5952.44 224.506C5952.46 224.687 5952.48 224.871 5952.49 225.058L5952.5 225.341V243.199L5954.99 243.537C6042.9 255.455 6119.86 263.874 6192.23 268.831C6244.56 263.884 6300.03 257.322 6360.73 249.16C6360.58 248.658 6360.5 248.126 6360.5 247.576V225.341L6360.51 225.058C6360.63 222.563 6362.42 220.507 6364.79 219.976L6456.18 150.183C6367.1 154.814 6283.32 154.064 6192.36 147.865ZM1055.76 266.512H1057.4V266.331C1056.85 266.391 1056.31 266.452 1055.76 266.512ZM1715.6 232.226V264.393C1722.19 265.123 1728.72 265.83 1735.2 266.512H1768.3C1795.45 264.218 1823.38 261.468 1852.4 258.266V232.02L1715.6 232.226ZM2510.6 232.226V264.393C2517.19 265.123 2523.72 265.83 2530.2 266.512H2563.3C2590.45 264.218 2618.38 261.468 2647.4 258.266V232.02L2510.6 232.226ZM3305.6 232.226V264.944C3310.5 265.48 3315.36 266.003 3320.2 266.512H3358.3C3385.45 264.218 3413.38 261.468 3442.4 258.266V232.02L3305.6 232.226ZM920.604 232.226V264.393C926.419 265.038 932.19 265.664 937.92 266.272C976.117 263.545 1015.63 259.875 1057.4 255.266V232.02L920.604 232.226ZM4100.6 231.226V263.393C4107.19 264.123 4113.72 264.83 4120.2 265.512H4159.86C4184.94 263.293 4210.71 260.691 4237.4 257.711V231.02L4100.6 231.226ZM4895.6 231.226V263.393C4902.19 264.123 4908.72 264.83 4915.2 265.512H4948.3C4975.45 263.218 5003.38 260.468 5032.4 257.266V231.02L4895.6 231.226ZM5690.6 231.226V263.393C5697.19 264.123 5703.72 264.83 5710.2 265.512H5743.3C5770.45 263.218 5798.38 260.468 5827.4 257.266V231.02L5690.6 231.226ZM6485.6 231.226V263.393C6492.19 264.123 6498.72 264.83 6505.2 265.512H6538.3C6565.45 263.218 6593.38 260.468 6622.4 257.266V231.02L6485.6 231.226ZM3191.5 232.399V248.576C3191.5 249.372 3191.33 250.128 3191.02 250.812C3227.26 255.711 3261.64 260.013 3294.6 263.722V232.243L3191.5 232.399ZM806.5 232.399V248.576C806.5 249.129 806.416 249.663 806.264 250.166L808.986 250.537C844.141 255.303 877.545 259.507 909.604 263.157V232.243L806.5 232.399ZM1601.5 232.399V248.576C1601.5 249.129 1601.42 249.663 1601.26 250.166L1603.99 250.537C1639.14 255.303 1672.54 259.507 1704.6 263.157V232.243L1601.5 232.399ZM2396.5 232.399V248.576C2396.5 249.129 2396.42 249.663 2396.26 250.166L2398.99 250.537C2434.14 255.303 2467.54 259.507 2499.6 263.157V232.243L2396.5 232.399ZM3986.5 231.399V247.576C3986.5 248.129 3986.42 248.663 3986.26 249.166L3988.99 249.537C4024.14 254.303 4057.54 258.507 4089.6 262.157V231.243L3986.5 231.399ZM4781.5 231.399V247.576C4781.5 248.129 4781.42 248.663 4781.26 249.166L4783.99 249.537C4819.14 254.303 4852.54 258.507 4884.6 262.157V231.243L4781.5 231.399ZM5576.5 231.399V247.576C5576.5 248.129 5576.42 248.663 5576.26 249.166L5578.99 249.537C5614.14 254.303 5647.54 258.507 5679.6 262.157V231.243L5576.5 231.399ZM6371.5 231.399V247.576C6371.5 248.129 6371.42 248.663 6371.26 249.166L6373.99 249.537C6409.14 254.303 6442.54 258.507 6474.6 262.157V231.243L6371.5 231.399ZM1863.4 232.003V257.036C1896.21 253.322 1930.43 249.04 1966.5 244.191V231.849L1863.4 232.003ZM2658.4 232.003V257.036C2691.21 253.322 2725.43 249.04 2761.5 244.191V231.849L2658.4 232.003ZM3453.4 232.003V257.036C3485.38 253.416 3518.69 249.257 3553.75 244.56C3554.55 243.982 3555.49 243.614 3556.5 243.523V231.849L3453.4 232.003ZM4248.4 231.003V256.468C4281.13 252.721 4315.28 248.416 4351.26 243.55L4351.5 243.524V230.849L4248.4 231.003ZM5043.4 231.003V256.036C5076.21 252.322 5110.43 248.04 5146.5 243.191V230.849L5043.4 231.003ZM5838.4 231.003V256.036C5871.21 252.322 5905.43 248.04 5941.5 243.191V230.849L5838.4 231.003ZM6633.4 231.003V256.036C6666.21 252.322 6700.43 248.04 6736.5 243.191V230.849L6633.4 231.003ZM1068.4 232.003V254.036C1101.21 250.322 1135.43 246.04 1171.5 241.191V231.849L1068.4 232.003ZM817.302 221.382L909.604 221.243V150.895L817.302 221.382ZM1612.3 221.382L1704.6 221.243V150.895L1612.3 221.382ZM2407.3 221.382L2499.6 221.243V150.895L2407.3 221.382ZM3202.3 221.382L3294.6 221.243V150.895L3202.3 221.382ZM936.518 221.202L1041.22 221.045L989 190.048L936.518 221.202ZM1731.52 221.202L1836.22 221.045L1784 190.048L1731.52 221.202ZM2526.52 221.202L2631.22 221.045L2579 190.048L2526.52 221.202ZM3321.52 221.202L3426.22 221.045L3374 190.048L3321.52 221.202ZM1068.4 221.004L1160.81 220.865L1076.85 156.752C1074.04 156.596 1071.22 156.434 1068.4 156.267V221.004ZM1863.4 221.004L1955.81 220.865L1871.85 156.752C1869.04 156.596 1866.22 156.434 1863.4 156.267V221.004ZM2658.4 221.004L2750.81 220.865L2666.85 156.752C2664.04 156.596 2661.22 156.434 2658.4 156.267V221.004ZM3453.4 221.004L3545.81 220.865L3462.24 157.045C3459.3 156.889 3456.35 156.725 3453.4 156.557V221.004ZM3997.3 220.382L4089.6 220.243V149.895L3997.3 220.382ZM4792.3 220.382L4884.6 220.243V149.895L4792.3 220.382ZM5587.3 220.382L5679.6 220.243V149.895L5587.3 220.382ZM6382.3 220.382L6474.6 220.243V149.895L6382.3 220.382ZM4116.52 220.202L4221.22 220.045L4169 189.048L4116.52 220.202ZM4911.52 220.202L5016.22 220.045L4964 189.048L4911.52 220.202ZM5706.52 220.202L5811.22 220.045L5759 189.048L5706.52 220.202ZM6501.52 220.202L6606.22 220.045L6554 189.048L6501.52 220.202ZM4248.4 220.004L4340.81 219.865L4256.85 155.752C4254.04 155.596 4251.22 155.434 4248.4 155.267V220.004ZM5043.4 220.004L5135.81 219.865L5051.85 155.752C5049.04 155.596 5046.22 155.434 5043.4 155.267V220.004ZM5838.4 220.004L5930.81 219.865L5846.85 155.752C5844.04 155.596 5841.22 155.434 5838.4 155.267V220.004ZM6633.4 220.004L6725.81 219.865L6641.85 155.752C6639.04 155.596 6636.22 155.434 6633.4 155.267L6633.4 220.004ZM920.604 217.904L978.263 183.674L920.604 149.445V217.904ZM999.736 183.674L1057.4 217.904V155.592C1054.3 155.395 1051.19 155.19 1048.07 154.98L999.736 183.674ZM1715.6 149.471V217.904L1773.26 183.674L1715.64 149.468C1715.63 149.469 1715.62 149.47 1715.6 149.471ZM1794.74 183.674L1852.4 217.904V155.592C1849.3 155.395 1846.19 155.19 1843.07 154.98L1794.74 183.674ZM2510.6 149.471V217.904L2568.26 183.674L2510.64 149.468C2510.63 149.469 2510.62 149.47 2510.6 149.471ZM2589.74 183.674L2647.4 217.904L2647.4 155.592C2644.29 155.395 2641.19 155.19 2638.07 154.98L2589.74 183.674ZM3305.6 149.471V217.904L3363.26 183.674L3305.64 149.468C3305.63 149.469 3305.62 149.47 3305.6 149.471ZM3384.74 183.674L3442.4 217.904L3442.4 155.905C3439.13 155.703 3435.85 155.495 3432.56 155.28L3384.74 183.674ZM4100.6 149.145V216.904L4158.26 182.674L4101.66 149.074C4101.31 149.097 4100.96 149.121 4100.6 149.145ZM4179.74 182.674L4237.4 216.904V154.592C4234.3 154.395 4231.19 154.19 4228.07 153.98L4179.74 182.674ZM4895.6 148.471V216.904L4953.26 182.674L4895.64 148.468C4895.63 148.469 4895.62 148.47 4895.6 148.471ZM4974.74 182.674L5032.4 216.904V154.592C5029.3 154.395 5026.19 154.19 5023.07 153.98L4974.74 182.674ZM5690.6 148.471V216.904L5748.26 182.674L5690.64 148.468C5690.63 148.469 5690.62 148.47 5690.6 148.471ZM5769.74 182.674L5827.4 216.904V154.592C5824.3 154.395 5821.19 154.19 5818.07 153.98L5769.74 182.674ZM6485.6 148.471V216.904L6543.26 182.674L6485.64 148.468C6485.63 148.469 6485.62 148.47 6485.6 148.471ZM6564.74 182.674L6622.4 216.904V154.592C6619.3 154.395 6616.19 154.19 6613.07 153.98L6564.74 182.674ZM937.737 145.313C936.955 145.368 936.174 145.422 935.394 145.477L989 177.301L1028.9 153.615C999.465 151.407 969.214 148.641 937.737 145.313ZM1749.64 147.057C1744.71 147.439 1739.8 147.805 1734.91 148.157L1784 177.301L1823.9 153.615C1799.77 151.805 1775.09 149.619 1749.64 147.057ZM2544.64 147.057C2539.71 147.439 2534.8 147.805 2529.91 148.157L2579 177.301L2618.9 153.615C2594.77 151.805 2570.09 149.619 2544.64 147.057ZM3336.81 147.274C3332.83 147.578 3328.86 147.873 3324.91 148.157L3374 177.301L3413.35 153.944C3388.49 152.122 3363.06 149.899 3336.81 147.274ZM4138.02 146.395C4132.27 146.858 4126.55 147.3 4120.86 147.722L4169 176.301L4208.9 152.615C4185.84 150.885 4162.28 148.812 4138.02 146.395ZM4929.64 146.057C4924.71 146.439 4919.79 146.805 4914.91 147.157L4964 176.301L5003.9 152.615C4979.77 150.805 4955.09 148.619 4929.64 146.057ZM5724.64 146.057C5719.71 146.439 5714.8 146.805 5709.91 147.157L5759 176.301L5798.9 152.615C5774.77 150.805 5750.09 148.619 5724.64 146.057ZM6519.64 146.057C6514.71 146.439 6509.79 146.805 6504.91 147.157L6554 176.301L6593.9 152.615C6569.77 150.805 6545.09 148.619 6519.64 146.057ZM1172.5 120.156C1136.08 125.049 1101.52 129.367 1068.4 133.107V136.516L1080.75 145.951C1173.54 150.974 1260.22 150.102 1354.96 143.411C1301.73 138.468 1245.31 131.815 1183.52 123.439L1176.26 122.45L1175.98 122.404C1174.52 122.129 1173.29 121.294 1172.5 120.156ZM1972 122.55C1933.92 127.694 1897.89 132.214 1863.4 136.107V136.516L1875.75 145.951C1968.54 150.974 2055.22 150.102 2149.96 143.411C2096.73 138.468 2040.31 131.815 1978.52 123.439L1972 122.55ZM2767 122.55C2728.92 127.694 2692.89 132.214 2658.4 136.107V136.516L2670.75 145.951C2763.54 150.974 2850.22 150.102 2944.96 143.411C2891.73 138.468 2835.31 131.815 2773.52 123.439L2767 122.55ZM3559.48 122.888C3522.33 127.892 3487.12 132.299 3453.4 136.107L3453.4 136.516L3466.12 146.235C3556.89 150.937 3642.05 149.973 3734.96 143.411C3681.73 138.468 3625.31 131.815 3563.52 123.439L3559.48 122.888ZM4355.45 121.279C4354.77 121.835 4353.94 122.233 4353.02 122.406L4352.74 122.451C4316.23 127.386 4281.61 131.747 4248.42 135.535L4260.75 144.951C4353.54 149.974 4440.22 149.102 4534.96 142.411C4481.73 137.468 4425.31 130.815 4363.52 122.439L4356.26 121.45L4355.98 121.404C4355.8 121.37 4355.62 121.328 4355.45 121.279ZM5152 121.55C5113.92 126.694 5077.89 131.214 5043.4 135.107V135.516L5055.75 144.951C5148.54 149.974 5235.22 149.102 5329.96 142.411C5276.73 137.468 5220.31 130.815 5158.52 122.439L5152 121.55ZM5947 121.55C5908.92 126.694 5872.89 131.214 5838.4 135.107V135.516L5850.75 144.951C5943.54 149.974 6030.22 149.102 6124.96 142.411C6071.73 137.468 6015.31 130.815 5953.52 122.439L5947 121.55ZM6742 121.55C6703.92 126.694 6667.89 131.214 6633.4 135.107V135.516L6645.75 144.951C6738.54 149.974 6825.22 149.102 6919.96 142.411C6866.73 137.468 6810.31 130.815 6748.52 122.439L6742 121.55ZM1596 128.55C1559.6 133.466 1525.08 137.811 1491.98 141.585C1557.34 144.101 1620.5 143.611 1686.63 140.145C1659.63 136.958 1631.67 133.391 1602.52 129.439L1596 128.55ZM2391 128.55C2354.6 133.466 2320.08 137.811 2286.98 141.585C2352.34 144.101 2415.5 143.611 2481.63 140.145C2454.63 136.958 2426.67 133.391 2397.52 129.439L2391 128.55ZM3183.48 128.888C3148.01 133.665 3114.32 137.898 3081.98 141.585C3146.19 144.057 3208.28 143.628 3273.15 140.325C3245.69 137.092 3217.22 133.466 3187.52 129.439L3183.48 128.888ZM3979.45 127.279C3978.77 127.835 3977.94 128.233 3977.02 128.406L3976.74 128.451C3940.07 133.408 3905.3 137.786 3871.98 141.585C3940.37 144.218 4006.36 143.56 4075.86 139.643C4047.56 136.331 4018.2 132.598 3987.52 128.439L3980.26 127.45L3979.98 127.404C3979.8 127.37 3979.62 127.328 3979.45 127.279ZM4776 127.55C4739.6 132.466 4705.08 136.811 4671.98 140.585C4737.34 143.101 4800.5 142.611 4866.63 139.145C4839.63 135.958 4811.67 132.391 4782.52 128.439L4776 127.55ZM5571 127.55C5534.6 132.466 5500.08 136.811 5466.98 140.585C5532.34 143.101 5595.5 142.611 5661.63 139.145C5634.63 135.958 5606.67 132.391 5577.52 128.439L5571 127.55ZM6366 127.55C6329.6 132.466 6295.08 136.811 6261.98 140.585C6327.34 143.101 6390.5 142.611 6456.63 139.145C6429.63 135.958 6401.67 132.391 6372.52 128.439L6366 127.55ZM796.497 126.156C761.755 130.824 728.713 134.967 696.985 138.585C756.46 140.875 814.119 140.675 873.852 138.008C852.4 135.385 830.325 132.53 807.518 129.439L800.255 128.45L799.976 128.404C798.519 128.129 797.295 127.294 796.497 126.156ZM920.604 100.021V132.393C924.63 132.839 928.635 133.277 932.621 133.705H945.696C981.477 131.044 1018.46 127.563 1057.4 123.266V99.8148L920.604 100.021ZM1715.6 100.021V132.393C1719.63 132.839 1723.64 133.277 1727.62 133.705H1777.65C1801.86 131.582 1826.7 129.101 1852.4 126.266V99.8148L1715.6 100.021ZM2510.6 100.021V132.393C2514.63 132.839 2518.64 133.277 2522.62 133.705H2572.65C2596.86 131.582 2621.7 129.101 2647.4 126.266V99.8148L2510.6 100.021ZM3305.6 100.021V132.944C3307.95 133.201 3310.29 133.455 3312.62 133.705H3367.65C3391.86 131.582 3416.7 129.101 3442.4 126.266V99.8148L3305.6 100.021ZM4100.6 99.0208V131.393C4104.63 131.839 4108.64 132.277 4112.62 132.705H4168.82C4191.07 130.67 4213.87 128.338 4237.4 125.711V98.8148L4100.6 99.0208ZM4895.6 99.0208V131.393C4899.63 131.839 4903.64 132.277 4907.62 132.705H4957.65C4981.86 130.582 5006.7 128.101 5032.4 125.266V98.8148L4895.6 99.0208ZM5690.6 99.0208V131.393C5694.63 131.839 5698.64 132.277 5702.62 132.705H5752.65C5776.86 130.582 5801.7 128.101 5827.4 125.266V98.8148L5690.6 99.0208ZM6485.6 99.0208V131.393C6489.63 131.839 6493.64 132.277 6497.62 132.705H6547.65C6571.86 130.582 6596.7 128.101 6622.4 125.266V98.8148L6485.6 99.0208ZM3191.5 100.193V116.971C3191.5 117.625 3191.38 118.251 3191.18 118.832C3227.36 123.723 3261.68 128.018 3294.6 131.722L3294.6 100.037L3191.5 100.193ZM806.5 100.193V116.971C806.5 117.387 806.452 117.791 806.365 118.18L808.986 118.537C844.141 123.303 877.545 127.507 909.604 131.157V100.037L806.5 100.193ZM1601.5 100.193V116.971C1601.5 117.387 1601.45 117.791 1601.36 118.18L1603.99 118.537C1639.14 123.303 1672.54 127.507 1704.6 131.157V100.037L1601.5 100.193ZM2396.5 100.193V116.971C2396.5 117.387 2396.45 117.791 2396.36 118.18L2398.99 118.537C2434.14 123.303 2467.54 127.507 2499.6 131.157V100.037L2396.5 100.193ZM3986.5 99.1927V115.971C3986.5 116.387 3986.45 116.791 3986.36 117.18L3988.99 117.537C4024.14 122.303 4057.54 126.507 4089.6 130.157L4089.6 99.0374L3986.5 99.1927ZM4781.5 99.1927V115.971C4781.5 116.387 4781.45 116.791 4781.36 117.18L4783.99 117.537C4819.14 122.303 4852.54 126.507 4884.6 130.157V99.0374L4781.5 99.1927ZM5576.5 99.1927V115.971C5576.5 116.387 5576.45 116.791 5576.36 117.18L5578.99 117.537C5614.14 122.303 5647.54 126.507 5679.6 130.157V99.0374L5576.5 99.1927ZM6371.5 99.1927V115.971C6371.5 116.387 6371.45 116.791 6371.36 117.18L6373.99 117.537C6409.14 122.303 6442.54 126.507 6474.6 130.157V99.0374L6371.5 99.1927ZM1863.4 99.7972V125.036C1896.21 121.322 1930.43 117.04 1966.5 112.191V99.6429L1863.4 99.7972ZM2658.4 99.7972V125.036C2691.21 121.322 2725.43 117.04 2761.5 112.191V99.6429L2658.4 99.7972ZM3453.4 99.7972V125.036C3485.38 121.416 3518.69 117.258 3553.75 112.56C3554.55 111.982 3555.49 111.614 3556.5 111.523V99.6429L3453.4 99.7972ZM4248.4 98.7972V124.468C4281.13 120.721 4315.28 116.416 4351.26 111.55L4351.5 111.524V98.6429L4248.4 98.7972ZM5043.4 98.7972V124.036C5076.21 120.322 5110.43 116.04 5146.5 111.191V98.6429L5043.4 98.7972ZM5838.4 98.7972V124.036C5871.21 120.322 5905.43 116.04 5941.5 111.191V98.6429L5838.4 98.7972ZM6633.4 98.7972V124.036C6666.21 120.322 6700.43 116.04 6736.5 111.191V98.6429L6633.4 98.7972ZM1068.4 99.7972V122.036C1101.21 118.322 1135.43 114.04 1171.5 109.191V99.6429L1068.4 99.7972ZM817.3 89.1771L909.604 89.0365V18.6888L817.3 89.1771ZM1612.3 89.1771L1704.6 89.0365V18.6888L1612.3 89.1771ZM2407.3 89.1771L2499.6 89.0365V18.6888L2407.3 89.1771ZM3202.3 89.1771L3294.6 89.0365V18.6888L3202.3 89.1771ZM935.505 88.9984L1042.22 88.8372L988.999 57.2415L935.505 88.9984ZM1730.51 88.9984L1837.22 88.8372L1784 57.2415L1730.51 88.9984ZM2525.51 88.9984L2632.22 88.8372L2579 57.2415L2525.51 88.9984ZM3320.51 88.9984L3427.22 88.8372L3374 57.2415L3320.51 88.9984ZM1068.4 88.7972L1160.81 88.6595L1068.4 18.0892V88.7972ZM1863.4 88.7972L1955.81 88.6595L1863.4 18.0892V88.7972ZM2658.4 88.7972L2750.81 88.6595L2658.4 18.0892V88.7972ZM3453.4 88.7972L3545.81 88.6595L3453.4 18.0892V88.7972ZM3997.3 88.1771L4089.6 88.0365V17.6888L3997.3 88.1771ZM4792.3 88.1771L4884.6 88.0365V17.6888L4792.3 88.1771ZM5587.3 88.1771L5679.6 88.0365V17.6888L5587.3 88.1771ZM6382.3 88.1771L6474.6 88.0365L6474.6 17.6888L6382.3 88.1771ZM4115.51 87.9984L4222.22 87.8372L4169 56.2415L4115.51 87.9984ZM4910.51 87.9984L5017.22 87.8372L4964 56.2415L4910.51 87.9984ZM5705.51 87.9984L5812.22 87.8372L5759 56.2415L5705.51 87.9984ZM6500.51 87.9984L6607.22 87.8372L6554 56.2415L6500.51 87.9984ZM4248.4 87.7972L4340.81 87.6595L4248.4 17.0892V87.7972ZM5043.4 87.7972L5135.81 87.6595L5043.4 17.0892V87.7972ZM5838.4 87.7972L5930.81 87.6595L5838.4 17.0892V87.7972ZM6633.4 87.7972L6725.81 87.6595L6633.4 17.0892V87.7972ZM999.736 50.8675L1057.4 85.097V16.638L999.736 50.8675ZM1794.74 50.8675L1852.4 85.097V16.638L1794.74 50.8675ZM2589.74 50.8675L2647.4 85.097V16.638L2589.74 50.8675ZM3384.74 50.8675L3442.4 85.097V16.638L3384.74 50.8675ZM920.604 85.096L978.262 50.8675L920.604 16.638V85.096ZM1715.6 85.096L1773.26 50.8675L1715.6 16.638L1715.6 85.096ZM2510.6 85.096L2568.26 50.8675L2510.6 16.638V85.096ZM3305.6 85.096L3363.26 50.8675L3305.6 16.638V85.096ZM4179.74 49.8675L4237.4 84.097V15.638L4179.74 49.8675ZM4974.74 49.8675L5032.4 84.097V15.638L4974.74 49.8675ZM5769.74 49.8675L5827.4 84.097V15.638L5769.74 49.8675ZM6564.74 49.8675L6622.4 84.097V15.638L6564.74 49.8675ZM4100.6 84.096L4158.26 49.8675L4100.6 15.638V84.096ZM4895.6 84.096L4953.26 49.8675L4895.6 15.638V84.096ZM5690.6 84.096L5748.26 49.8675L5690.6 15.638V84.096ZM6485.6 84.096L6543.26 49.8675L6485.6 15.638V84.096ZM2579 44.4945L2632.9 12.5003H2525.1L2579 44.4945ZM3374 44.4945L3427.9 12.5003H3320.1L3374 44.4945ZM989 44.4935L1042.9 12.5003H935.106L989 44.4935ZM1784 44.4935L1837.9 12.5003H1730.11L1784 44.4935ZM4169 43.4945L4222.9 11.5003H4115.1L4169 43.4945ZM4964 43.4945L5017.9 11.5003H4910.1L4964 43.4945ZM5759 43.4945L5812.9 11.5003H5705.1L5759 43.4945ZM6554 43.4945L6607.9 11.5003H6500.1L6554 43.4945Z" fill="#387322"/>
</svg>
